<?xml version="1.0" encoding="UTF-8"?>
<!-- Generated by SVGo -->
<svg width="358.614mm" height="125.252mm" viewBox="0.000 0.000 358.614 125.252" xmlns="http://www.w3.org/2000/svg" xmlns:xlink="http://www.w3.org/1999/xlink">
<polygon points="294.807,5.001 294.807,13.001 13.001,13.001 13.001,112.251 345.614,112.251 345.614,13.001 309.807,13.001 309.807,5.001 348.614,5.001 349.006,5.016 349.396,5.062 349.781,5.139 350.159,5.245 350.527,5.381 350.884,5.545 351.226,5.737 351.553,5.955 351.861,6.198 352.150,6.465 352.416,6.753 352.659,7.062 352.877,7.388 353.069,7.731 353.233,8.087 353.369,8.455 353.476,8.833 353.552,9.218 353.599,9.608 353.614,10.001 353.614,115.251 353.599,115.644 353.552,116.034 353.476,116.419 353.369,116.797 353.233,117.165 353.069,117.521 352.877,117.864 352.659,118.190 352.416,118.499 352.150,118.787 351.861,119.054 351.553,119.297 351.226,119.515 350.884,119.707 350.527,119.871 350.159,120.007 349.781,120.113 349.396,120.190 349.006,120.236 348.614,120.252 10.001,120.251 9.608,120.236 9.218,120.190 8.833,120.113 8.455,120.007 8.087,119.871 7.731,119.707 7.388,119.515 7.062,119.297 6.753,119.054 6.465,118.787 6.198,118.499 5.955,118.190 5.737,117.864 5.545,117.521 5.381,117.165 5.245,116.797 5.139,116.419 5.062,116.034 5.016,115.644 5.000,115.251 5.001,10.001 5.016,9.608 5.062,9.218 5.139,8.833 5.245,8.455 5.381,8.087 5.545,7.731 5.737,7.388 5.955,7.062 6.198,6.753 6.465,6.465 6.753,6.198 7.062,5.955 7.388,5.737 7.731,5.545 8.087,5.381 8.455,5.245 8.833,5.139 9.218,5.062 9.608,5.016 10.001,5.000" style="fill:none;stroke-width:0.050000mm;stroke:black"/>
<polygon points="349.150,114.825 348.732,115.038 348.400,115.370 348.187,115.788 348.114,116.251 348.187,116.715 348.400,117.133 348.732,117.465 349.150,117.678 349.614,117.751 350.078,117.678 350.496,117.465 350.828,117.133 351.041,116.715 351.114,116.251 351.041,115.788 350.828,115.370 350.496,115.038 350.078,114.825 349.614,114.751" style="fill:none;stroke-width:0.050000mm;stroke:black"/>
<polygon points="235.613,114.825 235.194,115.038 234.863,115.370 234.650,115.788 234.576,116.251 234.650,116.715 234.863,117.133 235.194,117.465 235.613,117.678 236.076,117.751 236.540,117.678 236.958,117.465 237.290,117.133 237.503,116.715 237.576,116.251 237.503,115.788 237.290,115.370 236.958,115.038 236.540,114.825 236.076,114.751" style="fill:none;stroke-width:0.050000mm;stroke:black"/>
<polygon points="122.075,114.825 121.657,115.038 121.325,115.370 121.112,115.788 121.038,116.251 121.112,116.715 121.325,117.133 121.657,117.465 122.075,117.678 122.538,117.751 123.002,117.678 123.420,117.465 123.752,117.133 123.965,116.715 124.038,116.251 123.965,115.788 123.752,115.370 123.420,115.038 123.002,114.825 122.538,114.751" style="fill:none;stroke-width:0.050000mm;stroke:black"/>
<polygon points="8.537,114.825 8.119,115.038 7.787,115.370 7.574,115.788 7.500,116.251 7.574,116.715 7.787,117.133 8.119,117.465 8.537,117.678 9.001,117.751 9.464,117.678 9.882,117.465 10.214,117.133 10.427,116.715 10.501,116.251 10.427,115.788 10.214,115.370 9.882,115.038 9.464,114.825 9.001,114.751" style="fill:none;stroke-width:0.050000mm;stroke:black"/>
<polygon points="122.075,7.574 121.657,7.787 121.325,8.119 121.112,8.537 121.038,9.001 121.112,9.464 121.325,9.882 121.657,10.214 122.075,10.427 122.538,10.501 123.002,10.427 123.420,10.214 123.752,9.882 123.965,9.464 124.038,9.001 123.965,8.537 123.752,8.119 123.420,7.787 123.002,7.574 122.538,7.501" style="fill:none;stroke-width:0.050000mm;stroke:black"/>
<polygon points="235.613,7.574 235.194,7.787 234.863,8.119 234.650,8.537 234.576,9.001 234.650,9.464 234.863,9.882 235.194,10.214 235.613,10.427 236.076,10.501 236.540,10.427 236.958,10.214 237.290,9.882 237.503,9.464 237.576,9.001 237.503,8.537 237.290,8.119 236.958,7.787 236.540,7.574 236.076,7.501" style="fill:none;stroke-width:0.050000mm;stroke:black"/>
<polygon points="349.150,7.574 348.732,7.787 348.400,8.119 348.187,8.537 348.114,9.001 348.187,9.464 348.400,9.882 348.732,10.214 349.150,10.427 349.614,10.501 350.078,10.427 350.496,10.214 350.828,9.882 351.041,9.464 351.114,9.001 351.041,8.537 350.828,8.119 350.496,7.787 350.078,7.574 349.614,7.501" style="fill:none;stroke-width:0.050000mm;stroke:black"/>
<polygon points="8.537,7.574 8.119,7.787 7.787,8.119 7.574,8.537 7.500,9.001 7.574,9.464 7.787,9.882 8.119,10.214 8.537,10.427 9.001,10.501 9.464,10.427 9.882,10.214 10.214,9.882 10.427,9.464 10.501,9.001 10.427,8.537 10.214,8.119 9.882,7.787 9.464,7.574 9.001,7.501" style="fill:none;stroke-width:0.050000mm;stroke:black"/>
</svg>