<?xml version="1.0" encoding="UTF-8"?>
<!-- Generated by SVGo -->
<svg width="358.614mm" height="125.252mm" viewBox="0.000 0.000 358.614 125.252" xmlns="http://www.w3.org/2000/svg" xmlns:xlink="http://www.w3.org/1999/xlink">
<polygon points="348.614,5.001 349.006,5.016 349.396,5.062 349.781,5.139 350.159,5.245 350.527,5.381 350.884,5.545 351.226,5.737 351.553,5.955 351.861,6.198 352.150,6.465 352.416,6.753 352.659,7.062 352.877,7.388 353.069,7.731 353.233,8.087 353.369,8.455 353.476,8.833 353.552,9.218 353.599,9.608 353.614,10.001 353.614,115.251 353.599,115.644 353.552,116.034 353.476,116.419 353.369,116.797 353.233,117.165 353.069,117.521 352.877,117.864 352.659,118.190 352.416,118.499 352.150,118.787 351.861,119.054 351.553,119.297 351.226,119.515 350.884,119.707 350.527,119.871 350.159,120.007 349.781,120.113 349.396,120.190 349.006,120.236 348.614,120.252 10.001,120.251 9.608,120.236 9.218,120.190 8.833,120.113 8.455,120.007 8.087,119.871 7.731,119.707 7.388,119.515 7.062,119.297 6.753,119.054 6.465,118.787 6.198,118.499 5.955,118.190 5.737,117.864 5.545,117.521 5.381,117.165 5.245,116.797 5.139,116.419 5.062,116.034 5.016,115.644 5.000,115.251 5.001,10.001 5.016,9.608 5.062,9.218 5.139,8.833 5.245,8.455 5.381,8.087 5.545,7.731 5.737,7.388 5.955,7.062 6.198,6.753 6.465,6.465 6.753,6.198 7.062,5.955 7.388,5.737 7.731,5.545 8.087,5.381 8.455,5.245 8.833,5.139 9.218,5.062 9.608,5.016 10.001,5.000" style="fill:none;stroke-width:0.050000mm;stroke:black"/>
<polygon points="349.150,114.825 348.732,115.038 348.400,115.370 348.187,115.788 348.114,116.251 348.187,116.715 348.400,117.133 348.732,117.465 349.150,117.678 349.614,117.751 350.078,117.678 350.496,117.465 350.828,117.133 351.041,116.715 351.114,116.251 351.041,115.788 350.828,115.370 350.496,115.038 350.078,114.825 349.614,114.751" style="fill:none;stroke-width:0.050000mm;stroke:black"/>
<polygon points="235.613,114.825 235.194,115.038 234.863,115.370 234.650,115.788 234.576,116.251 234.650,116.715 234.863,117.133 235.194,117.465 235.613,117.678 236.076,117.751 236.540,117.678 236.958,117.465 237.290,117.133 237.503,116.715 237.576,116.251 237.503,115.788 237.290,115.370 236.958,115.038 236.540,114.825 236.076,114.751" style="fill:none;stroke-width:0.050000mm;stroke:black"/>
<polygon points="122.075,114.825 121.657,115.038 121.325,115.370 121.112,115.788 121.038,116.251 121.112,116.715 121.325,117.133 121.657,117.465 122.075,117.678 122.538,117.751 123.002,117.678 123.420,117.465 123.752,117.133 123.965,116.715 124.038,116.251 123.965,115.788 123.752,115.370 123.420,115.038 123.002,114.825 122.538,114.751" style="fill:none;stroke-width:0.050000mm;stroke:black"/>
<polygon points="8.537,114.825 8.119,115.038 7.787,115.370 7.574,115.788 7.500,116.251 7.574,116.715 7.787,117.133 8.119,117.465 8.537,117.678 9.001,117.751 9.464,117.678 9.882,117.465 10.214,117.133 10.427,116.715 10.501,116.251 10.427,115.788 10.214,115.370 9.882,115.038 9.464,114.825 9.001,114.751" style="fill:none;stroke-width:0.050000mm;stroke:black"/>
<polygon points="138.969,93.726 138.969,94.726 138.169,94.726 138.169,97.825 138.969,97.825 138.969,98.426 99.344,98.426 99.344,95.196 92.594,95.196 92.594,98.426 91.769,98.426 91.769,101.226 92.594,101.226 92.594,107.495 94.319,107.495 94.319,108.696 97.619,108.696 97.619,107.495 99.344,107.495 99.344,103.025 138.969,103.025 138.969,103.626 138.169,103.626 138.169,106.726 138.969,106.726 138.969,107.726 152.969,107.726 152.969,106.726 153.769,106.726 153.769,103.626 152.969,103.626 152.969,103.025 192.594,103.025 192.594,107.495 194.319,107.495 194.319,108.696 197.619,108.696 197.619,107.495 199.344,107.495 199.344,101.226 200.169,101.226 200.169,98.426 199.344,98.426 199.344,95.196 192.594,95.196 192.594,98.426 152.969,98.426 152.969,97.825 153.769,97.825 153.769,94.726 152.969,94.726 152.969,93.726" style="fill:none;stroke-width:0.050000mm;stroke:black"/>
<polygon points="19.907,93.726 19.907,94.726 19.107,94.726 19.107,97.825 19.907,97.825 19.907,103.626 19.107,103.626 19.107,106.726 19.907,106.726 19.907,107.726 33.907,107.726 33.907,106.726 34.707,106.726 34.707,103.626 33.907,103.626 33.907,97.825 34.707,97.825 34.707,94.726 33.907,94.726 33.907,93.726" style="fill:none;stroke-width:0.050000mm;stroke:black"/>
<polygon points="43.719,93.726 43.719,94.726 42.919,94.726 42.919,97.825 43.719,97.825 43.719,103.626 42.919,103.626 42.919,106.726 43.719,106.726 43.719,107.726 57.719,107.726 57.719,106.726 58.519,106.726 58.519,103.626 57.719,103.626 57.719,97.825 58.519,97.825 58.519,94.726 57.719,94.726 57.719,93.726" style="fill:none;stroke-width:0.050000mm;stroke:black"/>
<polygon points="67.532,93.726 67.532,94.726 66.732,94.726 66.732,97.825 67.532,97.825 67.532,103.626 66.732,103.626 66.732,106.726 67.532,106.726 67.532,107.726 81.532,107.726 81.532,106.726 82.332,106.726 82.332,103.626 81.532,103.626 81.532,97.825 82.332,97.825 82.332,94.726 81.532,94.726 81.532,93.726" style="fill:none;stroke-width:0.050000mm;stroke:black"/>
<polygon points="210.407,93.726 210.407,94.726 209.607,94.726 209.607,97.825 210.407,97.825 210.407,103.626 209.607,103.626 209.607,106.726 210.407,106.726 210.407,107.726 224.407,107.726 224.407,106.726 225.207,106.726 225.207,103.626 224.407,103.626 224.407,97.825 225.207,97.825 225.207,94.726 224.407,94.726 224.407,93.726" style="fill:none;stroke-width:0.050000mm;stroke:black"/>
<polygon points="234.219,93.726 234.219,94.726 233.419,94.726 233.419,97.825 234.219,97.825 234.219,103.626 233.419,103.626 233.419,106.726 234.219,106.726 234.219,107.726 248.219,107.726 248.219,106.726 249.019,106.726 249.019,103.626 248.219,103.626 248.219,97.825 249.019,97.825 249.019,94.726 248.219,94.726 248.219,93.726" style="fill:none;stroke-width:0.050000mm;stroke:black"/>
<polygon points="258.032,93.726 258.032,94.726 257.232,94.726 257.232,97.825 258.032,97.825 258.032,103.626 257.232,103.626 257.232,106.726 258.032,106.726 258.032,107.726 272.032,107.726 272.032,106.726 272.832,106.726 272.832,103.626 272.032,103.626 272.032,97.825 272.832,97.825 272.832,94.726 272.032,94.726 272.032,93.726" style="fill:none;stroke-width:0.050000mm;stroke:black"/>
<polygon points="288.988,93.726 288.988,94.726 288.188,94.726 288.188,97.825 288.988,97.825 288.988,103.626 288.188,103.626 288.188,106.726 288.988,106.726 288.988,107.726 302.988,107.726 302.988,106.726 303.788,106.726 303.788,103.626 302.988,103.626 302.988,97.825 303.788,97.825 303.788,94.726 302.988,94.726 302.988,93.726" style="fill:none;stroke-width:0.050000mm;stroke:black"/>
<polygon points="308.038,93.726 308.038,94.726 307.238,94.726 307.238,97.825 308.038,97.825 308.038,103.626 307.238,103.626 307.238,106.726 308.038,106.726 308.038,107.726 322.038,107.726 322.038,106.726 322.838,106.726 322.838,103.626 322.038,103.626 322.038,97.825 322.838,97.825 322.838,94.726 322.038,94.726 322.038,93.726" style="fill:none;stroke-width:0.050000mm;stroke:black"/>
<polygon points="327.088,93.726 327.088,94.726 326.288,94.726 326.288,97.825 327.088,97.825 327.088,103.626 326.288,103.626 326.288,106.726 327.088,106.726 327.088,107.726 341.088,107.726 341.088,106.726 341.888,106.726 341.888,103.626 341.088,103.626 341.088,97.825 341.888,97.825 341.888,94.726 341.088,94.726 341.088,93.726" style="fill:none;stroke-width:0.050000mm;stroke:black"/>
<polygon points="29.432,74.676 29.432,75.676 28.632,75.676 28.632,78.775 29.432,78.775 29.432,79.376 27.907,79.376 27.907,76.146 21.157,76.146 21.157,79.376 20.332,79.376 20.332,82.176 21.157,82.176 21.157,88.446 22.882,88.446 22.882,89.646 26.182,89.646 26.182,88.446 27.907,88.446 27.907,83.976 29.432,83.976 29.432,84.576 28.632,84.576 28.632,87.676 29.432,87.676 29.432,88.676 43.432,88.676 43.432,87.676 44.232,87.676 44.232,84.576 43.432,84.576 43.432,83.976 44.957,83.976 44.957,88.446 46.682,88.446 46.682,89.646 49.982,89.646 49.982,88.446 51.707,88.446 51.707,82.176 52.532,82.176 52.532,79.376 51.707,79.376 51.707,76.146 44.957,76.146 44.957,79.376 43.432,79.376 43.432,78.775 44.232,78.775 44.232,75.676 43.432,75.676 43.432,74.676" style="fill:none;stroke-width:0.050000mm;stroke:black"/>
<polygon points="267.557,74.676 267.557,75.676 266.757,75.676 266.757,78.775 267.557,78.775 267.557,79.376 266.032,79.376 266.032,76.146 259.282,76.146 259.282,79.376 258.457,79.376 258.457,82.176 259.282,82.176 259.282,88.446 261.006,88.446 261.006,89.646 264.307,89.646 264.307,88.446 266.032,88.446 266.032,83.976 267.557,83.976 267.557,84.576 266.757,84.576 266.757,87.676 267.557,87.676 267.557,88.676 281.557,88.676 281.557,87.676 282.357,87.676 282.357,84.576 281.557,84.576 281.557,83.976 283.082,83.976 283.082,88.446 284.807,88.446 284.807,89.646 288.107,89.646 288.107,88.446 289.832,88.446 289.832,82.176 290.657,82.176 290.657,79.376 289.832,79.376 289.832,76.146 283.082,76.146 283.082,79.376 281.557,79.376 281.557,78.775 282.357,78.775 282.357,75.676 281.557,75.676 281.557,74.676" style="fill:none;stroke-width:0.050000mm;stroke:black"/>
<polygon points="60.388,74.676 60.388,75.676 59.588,75.676 59.588,78.775 60.388,78.775 60.388,84.576 59.588,84.576 59.588,87.676 60.388,87.676 60.388,88.676 74.388,88.676 74.388,87.676 75.188,87.676 75.188,84.576 74.388,84.576 74.388,78.775 75.188,78.775 75.188,75.676 74.388,75.676 74.388,74.676" style="fill:none;stroke-width:0.050000mm;stroke:black"/>
<polygon points="79.438,74.676 79.438,75.676 78.638,75.676 78.638,78.775 79.438,78.775 79.438,84.576 78.638,84.576 78.638,87.676 79.438,87.676 79.438,88.676 93.438,88.676 93.438,87.676 94.238,87.676 94.238,84.576 93.438,84.576 93.438,78.775 94.238,78.775 94.238,75.676 93.438,75.676 93.438,74.676" style="fill:none;stroke-width:0.050000mm;stroke:black"/>
<polygon points="98.488,74.676 98.488,75.676 97.688,75.676 97.688,78.775 98.488,78.775 98.488,84.576 97.688,84.576 97.688,87.676 98.488,87.676 98.488,88.676 112.488,88.676 112.488,87.676 113.288,87.676 113.288,84.576 112.488,84.576 112.488,78.775 113.288,78.775 113.288,75.676 112.488,75.676 112.488,74.676" style="fill:none;stroke-width:0.050000mm;stroke:black"/>
<polygon points="117.538,74.676 117.538,75.676 116.738,75.676 116.738,78.775 117.538,78.775 117.538,84.576 116.738,84.576 116.738,87.676 117.538,87.676 117.538,88.676 131.538,88.676 131.538,87.676 132.338,87.676 132.338,84.576 131.538,84.576 131.538,78.775 132.338,78.775 132.338,75.676 131.538,75.676 131.538,74.676" style="fill:none;stroke-width:0.050000mm;stroke:black"/>
<polygon points="136.588,74.676 136.588,75.676 135.788,75.676 135.788,78.775 136.588,78.775 136.588,84.576 135.788,84.576 135.788,87.676 136.588,87.676 136.588,88.676 150.588,88.676 150.588,87.676 151.388,87.676 151.388,84.576 150.588,84.576 150.588,78.775 151.388,78.775 151.388,75.676 150.588,75.676 150.588,74.676" style="fill:none;stroke-width:0.050000mm;stroke:black"/>
<polygon points="155.638,74.676 155.638,75.676 154.838,75.676 154.838,78.775 155.638,78.775 155.638,84.576 154.838,84.576 154.838,87.676 155.638,87.676 155.638,88.676 169.638,88.676 169.638,87.676 170.438,87.676 170.438,84.576 169.638,84.576 169.638,78.775 170.438,78.775 170.438,75.676 169.638,75.676 169.638,74.676" style="fill:none;stroke-width:0.050000mm;stroke:black"/>
<polygon points="174.688,74.676 174.688,75.676 173.888,75.676 173.888,78.775 174.688,78.775 174.688,84.576 173.888,84.576 173.888,87.676 174.688,87.676 174.688,88.676 188.688,88.676 188.688,87.676 189.488,87.676 189.488,84.576 188.688,84.576 188.688,78.775 189.488,78.775 189.488,75.676 188.688,75.676 188.688,74.676" style="fill:none;stroke-width:0.050000mm;stroke:black"/>
<polygon points="193.738,74.676 193.738,75.676 192.938,75.676 192.938,78.775 193.738,78.775 193.738,84.576 192.938,84.576 192.938,87.676 193.738,87.676 193.738,88.676 207.738,88.676 207.738,87.676 208.538,87.676 208.538,84.576 207.738,84.576 207.738,78.775 208.538,78.775 208.538,75.676 207.738,75.676 207.738,74.676" style="fill:none;stroke-width:0.050000mm;stroke:black"/>
<polygon points="212.788,74.676 212.788,75.676 211.988,75.676 211.988,78.775 212.788,78.775 212.788,84.576 211.988,84.576 211.988,87.676 212.788,87.676 212.788,88.676 226.788,88.676 226.788,87.676 227.588,87.676 227.588,84.576 226.788,84.576 226.788,78.775 227.588,78.775 227.588,75.676 226.788,75.676 226.788,74.676" style="fill:none;stroke-width:0.050000mm;stroke:black"/>
<polygon points="231.838,74.676 231.838,75.676 231.038,75.676 231.038,78.775 231.838,78.775 231.838,84.576 231.038,84.576 231.038,87.676 231.838,87.676 231.838,88.676 245.838,88.676 245.838,87.676 246.638,87.676 246.638,84.576 245.838,84.576 245.838,78.775 246.638,78.775 246.638,75.676 245.838,75.676 245.838,74.676" style="fill:none;stroke-width:0.050000mm;stroke:black"/>
<polygon points="308.038,74.676 308.038,75.676 307.238,75.676 307.238,78.775 308.038,78.775 308.038,84.576 307.238,84.576 307.238,87.676 308.038,87.676 308.038,88.676 322.038,88.676 322.038,87.676 322.838,87.676 322.838,84.576 322.038,84.576 322.038,78.775 322.838,78.775 322.838,75.676 322.038,75.676 322.038,74.676" style="fill:none;stroke-width:0.050000mm;stroke:black"/>
<polygon points="272.319,55.626 272.319,56.626 271.519,56.626 271.519,59.726 272.319,59.726 272.319,60.326 270.794,60.326 270.794,57.096 264.044,57.096 264.044,60.326 263.219,60.326 263.219,63.126 264.044,63.126 264.044,69.396 265.769,69.396 265.769,70.596 269.069,70.596 269.069,69.396 270.794,69.396 270.794,64.926 272.319,64.926 272.319,65.526 271.519,65.526 271.519,68.626 272.319,68.626 272.319,69.626 286.319,69.626 286.319,68.626 287.119,68.626 287.119,65.526 286.319,65.526 286.319,64.926 287.844,64.926 287.844,69.396 289.569,69.396 289.569,70.596 292.869,70.596 292.869,69.396 294.594,69.396 294.594,63.126 295.419,63.126 295.419,60.326 294.594,60.326 294.594,57.096 287.844,57.096 287.844,60.326 286.319,60.326 286.319,59.726 287.119,59.726 287.119,56.626 286.319,56.626 286.319,55.626" style="fill:none;stroke-width:0.050000mm;stroke:black"/>
<polygon points="24.669,55.626 24.669,56.626 23.869,56.626 23.869,59.726 24.669,59.726 24.669,65.526 23.869,65.526 23.869,68.626 24.669,68.626 24.669,69.626 38.669,69.626 38.669,68.626 39.469,68.626 39.469,65.526 38.669,65.526 38.669,59.726 39.469,59.726 39.469,56.626 38.669,56.626 38.669,55.626" style="fill:none;stroke-width:0.050000mm;stroke:black"/>
<polygon points="50.863,55.626 50.863,56.626 50.063,56.626 50.063,59.726 50.863,59.726 50.863,65.526 50.063,65.526 50.063,68.626 50.863,68.626 50.863,69.626 64.862,69.626 64.862,68.626 65.663,68.626 65.663,65.526 64.862,65.526 64.862,59.726 65.663,59.726 65.663,56.626 64.862,56.626 64.862,55.626" style="fill:none;stroke-width:0.050000mm;stroke:black"/>
<polygon points="69.913,55.626 69.913,56.626 69.113,56.626 69.113,59.726 69.913,59.726 69.913,65.526 69.113,65.526 69.113,68.626 69.913,68.626 69.913,69.626 83.913,69.626 83.913,68.626 84.713,68.626 84.713,65.526 83.913,65.526 83.913,59.726 84.713,59.726 84.713,56.626 83.913,56.626 83.913,55.626" style="fill:none;stroke-width:0.050000mm;stroke:black"/>
<polygon points="88.963,55.626 88.963,56.626 88.163,56.626 88.163,59.726 88.963,59.726 88.963,65.526 88.163,65.526 88.163,68.626 88.963,68.626 88.963,69.626 102.963,69.626 102.963,68.626 103.763,68.626 103.763,65.526 102.963,65.526 102.963,59.726 103.763,59.726 103.763,56.626 102.963,56.626 102.963,55.626" style="fill:none;stroke-width:0.050000mm;stroke:black"/>
<polygon points="108.013,55.626 108.013,56.626 107.213,56.626 107.213,59.726 108.013,59.726 108.013,65.526 107.213,65.526 107.213,68.626 108.013,68.626 108.013,69.626 122.013,69.626 122.013,68.626 122.813,68.626 122.813,65.526 122.013,65.526 122.013,59.726 122.813,59.726 122.813,56.626 122.013,56.626 122.013,55.626" style="fill:none;stroke-width:0.050000mm;stroke:black"/>
<polygon points="127.063,55.626 127.063,56.626 126.263,56.626 126.263,59.726 127.063,59.726 127.063,65.526 126.263,65.526 126.263,68.626 127.063,68.626 127.063,69.626 141.063,69.626 141.063,68.626 141.863,68.626 141.863,65.526 141.063,65.526 141.063,59.726 141.863,59.726 141.863,56.626 141.063,56.626 141.063,55.626" style="fill:none;stroke-width:0.050000mm;stroke:black"/>
<polygon points="146.113,55.626 146.113,56.626 145.313,56.626 145.313,59.726 146.113,59.726 146.113,65.526 145.313,65.526 145.313,68.626 146.113,68.626 146.113,69.626 160.113,69.626 160.113,68.626 160.913,68.626 160.913,65.526 160.113,65.526 160.113,59.726 160.913,59.726 160.913,56.626 160.113,56.626 160.113,55.626" style="fill:none;stroke-width:0.050000mm;stroke:black"/>
<polygon points="165.163,55.626 165.163,56.626 164.363,56.626 164.363,59.726 165.163,59.726 165.163,65.526 164.363,65.526 164.363,68.626 165.163,68.626 165.163,69.626 179.163,69.626 179.163,68.626 179.963,68.626 179.963,65.526 179.163,65.526 179.163,59.726 179.963,59.726 179.963,56.626 179.163,56.626 179.163,55.626" style="fill:none;stroke-width:0.050000mm;stroke:black"/>
<polygon points="184.213,55.626 184.213,56.626 183.413,56.626 183.413,59.726 184.213,59.726 184.213,65.526 183.413,65.526 183.413,68.626 184.213,68.626 184.213,69.626 198.213,69.626 198.213,68.626 199.013,68.626 199.013,65.526 198.213,65.526 198.213,59.726 199.013,59.726 199.013,56.626 198.213,56.626 198.213,55.626" style="fill:none;stroke-width:0.050000mm;stroke:black"/>
<polygon points="203.263,55.626 203.263,56.626 202.463,56.626 202.463,59.726 203.263,59.726 203.263,65.526 202.463,65.526 202.463,68.626 203.263,68.626 203.263,69.626 217.263,69.626 217.263,68.626 218.063,68.626 218.063,65.526 217.263,65.526 217.263,59.726 218.063,59.726 218.063,56.626 217.263,56.626 217.263,55.626" style="fill:none;stroke-width:0.050000mm;stroke:black"/>
<polygon points="222.313,55.626 222.313,56.626 221.513,56.626 221.513,59.726 222.313,59.726 222.313,65.526 221.513,65.526 221.513,68.626 222.313,68.626 222.313,69.626 236.313,69.626 236.313,68.626 237.113,68.626 237.113,65.526 236.313,65.526 236.313,59.726 237.113,59.726 237.113,56.626 236.313,56.626 236.313,55.626" style="fill:none;stroke-width:0.050000mm;stroke:black"/>
<polygon points="241.363,55.626 241.363,56.626 240.563,56.626 240.563,59.726 241.363,59.726 241.363,65.526 240.563,65.526 240.563,68.626 241.363,68.626 241.363,69.626 255.363,69.626 255.363,68.626 256.162,68.626 256.162,65.526 255.363,65.526 255.363,59.726 256.162,59.726 256.162,56.626 255.363,56.626 255.363,55.626" style="fill:none;stroke-width:0.050000mm;stroke:black"/>
<polygon points="22.288,36.576 22.288,37.576 21.488,37.576 21.488,40.676 22.288,40.676 22.288,46.476 21.488,46.476 21.488,49.576 22.288,49.576 22.288,50.576 36.288,50.576 36.288,49.576 37.088,49.576 37.088,46.476 36.288,46.476 36.288,40.676 37.088,40.676 37.088,37.576 36.288,37.576 36.288,36.576" style="fill:none;stroke-width:0.050000mm;stroke:black"/>
<polygon points="46.101,36.576 46.101,37.576 45.301,37.576 45.301,40.676 46.101,40.676 46.101,46.476 45.301,46.476 45.301,49.576 46.101,49.576 46.101,50.576 60.101,50.576 60.101,49.576 60.901,49.576 60.901,46.476 60.101,46.476 60.101,40.676 60.901,40.676 60.901,37.576 60.101,37.576 60.101,36.576" style="fill:none;stroke-width:0.050000mm;stroke:black"/>
<polygon points="65.151,36.576 65.151,37.576 64.350,37.576 64.350,40.676 65.151,40.676 65.151,46.476 64.350,46.476 64.350,49.576 65.151,49.576 65.151,50.576 79.151,50.576 79.151,49.576 79.951,49.576 79.951,46.476 79.151,46.476 79.151,40.676 79.951,40.676 79.951,37.576 79.151,37.576 79.151,36.576" style="fill:none;stroke-width:0.050000mm;stroke:black"/>
<polygon points="84.201,36.576 84.201,37.576 83.401,37.576 83.401,40.676 84.201,40.676 84.201,46.476 83.401,46.476 83.401,49.576 84.201,49.576 84.201,50.576 98.201,50.576 98.201,49.576 99.001,49.576 99.001,46.476 98.201,46.476 98.201,40.676 99.001,40.676 99.001,37.576 98.201,37.576 98.201,36.576" style="fill:none;stroke-width:0.050000mm;stroke:black"/>
<polygon points="103.251,36.576 103.251,37.576 102.451,37.576 102.451,40.676 103.251,40.676 103.251,46.476 102.451,46.476 102.451,49.576 103.251,49.576 103.251,50.576 117.251,50.576 117.251,49.576 118.051,49.576 118.051,46.476 117.251,46.476 117.251,40.676 118.051,40.676 118.051,37.576 117.251,37.576 117.251,36.576" style="fill:none;stroke-width:0.050000mm;stroke:black"/>
<polygon points="122.301,36.576 122.301,37.576 121.501,37.576 121.501,40.676 122.301,40.676 122.301,46.476 121.501,46.476 121.501,49.576 122.301,49.576 122.301,50.576 136.301,50.576 136.301,49.576 137.101,49.576 137.101,46.476 136.301,46.476 136.301,40.676 137.101,40.676 137.101,37.576 136.301,37.576 136.301,36.576" style="fill:none;stroke-width:0.050000mm;stroke:black"/>
<polygon points="141.351,36.576 141.351,37.576 140.551,37.576 140.551,40.676 141.351,40.676 141.351,46.476 140.551,46.476 140.551,49.576 141.351,49.576 141.351,50.576 155.351,50.576 155.351,49.576 156.151,49.576 156.151,46.476 155.351,46.476 155.351,40.676 156.151,40.676 156.151,37.576 155.351,37.576 155.351,36.576" style="fill:none;stroke-width:0.050000mm;stroke:black"/>
<polygon points="160.401,36.576 160.401,37.576 159.601,37.576 159.601,40.676 160.401,40.676 160.401,46.476 159.601,46.476 159.601,49.576 160.401,49.576 160.401,50.576 174.401,50.576 174.401,49.576 175.201,49.576 175.201,46.476 174.401,46.476 174.401,40.676 175.201,40.676 175.201,37.576 174.401,37.576 174.401,36.576" style="fill:none;stroke-width:0.050000mm;stroke:black"/>
<polygon points="179.451,36.576 179.451,37.576 178.651,37.576 178.651,40.676 179.451,40.676 179.451,46.476 178.651,46.476 178.651,49.576 179.451,49.576 179.451,50.576 193.451,50.576 193.451,49.576 194.251,49.576 194.251,46.476 193.451,46.476 193.451,40.676 194.251,40.676 194.251,37.576 193.451,37.576 193.451,36.576" style="fill:none;stroke-width:0.050000mm;stroke:black"/>
<polygon points="198.501,36.576 198.501,37.576 197.701,37.576 197.701,40.676 198.501,40.676 198.501,46.476 197.701,46.476 197.701,49.576 198.501,49.576 198.501,50.576 212.501,50.576 212.501,49.576 213.301,49.576 213.301,46.476 212.501,46.476 212.501,40.676 213.301,40.676 213.301,37.576 212.501,37.576 212.501,36.576" style="fill:none;stroke-width:0.050000mm;stroke:black"/>
<polygon points="217.551,36.576 217.551,37.576 216.751,37.576 216.751,40.676 217.551,40.676 217.551,46.476 216.751,46.476 216.751,49.576 217.551,49.576 217.551,50.576 231.551,50.576 231.551,49.576 232.351,49.576 232.351,46.476 231.551,46.476 231.551,40.676 232.351,40.676 232.351,37.576 231.551,37.576 231.551,36.576" style="fill:none;stroke-width:0.050000mm;stroke:black"/>
<polygon points="236.601,36.576 236.601,37.576 235.801,37.576 235.801,40.676 236.601,40.676 236.601,46.476 235.801,46.476 235.801,49.576 236.601,49.576 236.601,50.576 250.601,50.576 250.601,49.576 251.401,49.576 251.401,46.476 250.601,46.476 250.601,40.676 251.401,40.676 251.401,37.576 250.601,37.576 250.601,36.576" style="fill:none;stroke-width:0.050000mm;stroke:black"/>
<polygon points="255.651,36.576 255.651,37.576 254.851,37.576 254.851,40.676 255.651,40.676 255.651,46.476 254.851,46.476 254.851,49.576 255.651,49.576 255.651,50.576 269.651,50.576 269.651,49.576 270.451,49.576 270.451,46.476 269.651,46.476 269.651,40.676 270.451,40.676 270.451,37.576 269.651,37.576 269.651,36.576" style="fill:none;stroke-width:0.050000mm;stroke:black"/>
<polygon points="279.463,36.576 279.463,37.576 278.663,37.576 278.663,40.676 279.463,40.676 279.463,46.476 278.663,46.476 278.663,49.576 279.463,49.576 279.463,50.576 293.463,50.576 293.463,49.576 294.263,49.576 294.263,46.476 293.463,46.476 293.463,40.676 294.263,40.676 294.263,37.576 293.463,37.576 293.463,36.576" style="fill:none;stroke-width:0.050000mm;stroke:black"/>
<polygon points="308.038,36.576 308.038,37.576 307.238,37.576 307.238,40.676 308.038,40.676 308.038,46.476 307.238,46.476 307.238,49.576 308.038,49.576 308.038,50.576 322.038,50.576 322.038,49.576 322.838,49.576 322.838,46.476 322.038,46.476 322.038,40.676 322.838,40.676 322.838,37.576 322.038,37.576 322.038,36.576" style="fill:none;stroke-width:0.050000mm;stroke:black"/>
<polygon points="327.088,36.576 327.088,37.576 326.288,37.576 326.288,40.676 327.088,40.676 327.088,46.476 326.288,46.476 326.288,49.576 327.088,49.576 327.088,50.576 341.088,50.576 341.088,49.576 341.888,49.576 341.888,46.476 341.088,46.476 341.088,40.676 341.888,40.676 341.888,37.576 341.088,37.576 341.088,36.576" style="fill:none;stroke-width:0.050000mm;stroke:black"/>
<polygon points="274.701,17.526 274.701,18.526 273.901,18.526 273.901,21.626 274.701,21.626 274.701,22.225 273.176,22.225 273.176,18.995 266.426,18.995 266.426,22.225 265.601,22.225 265.601,25.026 266.426,25.026 266.426,31.295 268.151,31.295 268.151,32.495 271.451,32.495 271.451,31.295 273.176,31.295 273.176,26.826 274.701,26.826 274.701,27.425 273.901,27.425 273.901,30.526 274.701,30.526 274.701,31.526 288.701,31.526 288.701,30.526 289.501,30.526 289.501,27.425 288.701,27.425 288.701,26.826 290.226,26.826 290.226,31.295 291.951,31.295 291.951,32.495 295.251,32.495 295.251,31.295 296.976,31.295 296.976,25.026 297.801,25.026 297.801,22.225 296.976,22.225 296.976,18.995 290.226,18.995 290.226,22.225 288.701,22.225 288.701,21.626 289.501,21.626 289.501,18.526 288.701,18.526 288.701,17.526" style="fill:none;stroke-width:0.050000mm;stroke:black"/>
<polygon points="17.526,17.526 17.526,18.526 16.725,18.526 16.725,21.626 17.526,21.626 17.526,27.425 16.725,27.425 16.725,30.526 17.526,30.526 17.526,31.526 31.526,31.526 31.526,30.526 32.324,30.526 32.324,27.425 31.526,27.425 31.526,21.626 32.324,21.626 32.324,18.526 31.526,18.526 31.526,17.526" style="fill:none;stroke-width:0.050000mm;stroke:black"/>
<polygon points="36.576,17.526 36.576,18.526 35.776,18.526 35.776,21.626 36.576,21.626 36.576,27.425 35.776,27.425 35.776,30.526 36.576,30.526 36.576,31.526 50.576,31.526 50.576,30.526 51.376,30.526 51.376,27.425 50.576,27.425 50.576,21.626 51.376,21.626 51.376,18.526 50.576,18.526 50.576,17.526" style="fill:none;stroke-width:0.050000mm;stroke:black"/>
<polygon points="55.626,17.526 55.626,18.526 54.826,18.526 54.826,21.626 55.626,21.626 55.626,27.425 54.826,27.425 54.826,30.526 55.626,30.526 55.626,31.526 69.626,31.526 69.626,30.526 70.426,30.526 70.426,27.425 69.626,27.425 69.626,21.626 70.426,21.626 70.426,18.526 69.626,18.526 69.626,17.526" style="fill:none;stroke-width:0.050000mm;stroke:black"/>
<polygon points="74.676,17.526 74.676,18.526 73.876,18.526 73.876,21.626 74.676,21.626 74.676,27.425 73.876,27.425 73.876,30.526 74.676,30.526 74.676,31.526 88.676,31.526 88.676,30.526 89.476,30.526 89.476,27.425 88.676,27.425 88.676,21.626 89.476,21.626 89.476,18.526 88.676,18.526 88.676,17.526" style="fill:none;stroke-width:0.050000mm;stroke:black"/>
<polygon points="93.726,17.526 93.726,18.526 92.926,18.526 92.926,21.626 93.726,21.626 93.726,27.425 92.926,27.425 92.926,30.526 93.726,30.526 93.726,31.526 107.726,31.526 107.726,30.526 108.525,30.526 108.525,27.425 107.726,27.425 107.726,21.626 108.525,21.626 108.525,18.526 107.726,18.526 107.726,17.526" style="fill:none;stroke-width:0.050000mm;stroke:black"/>
<polygon points="112.775,17.526 112.775,18.526 111.976,18.526 111.976,21.626 112.775,21.626 112.775,27.425 111.976,27.425 111.976,30.526 112.775,30.526 112.775,31.526 126.775,31.526 126.775,30.526 127.575,30.526 127.575,27.425 126.775,27.425 126.775,21.626 127.575,21.626 127.575,18.526 126.775,18.526 126.775,17.526" style="fill:none;stroke-width:0.050000mm;stroke:black"/>
<polygon points="131.826,17.526 131.826,18.526 131.025,18.526 131.025,21.626 131.826,21.626 131.826,27.425 131.025,27.425 131.025,30.526 131.826,30.526 131.826,31.526 145.826,31.526 145.826,30.526 146.626,30.526 146.626,27.425 145.826,27.425 145.826,21.626 146.626,21.626 146.626,18.526 145.826,18.526 145.826,17.526" style="fill:none;stroke-width:0.050000mm;stroke:black"/>
<polygon points="150.876,17.526 150.876,18.526 150.076,18.526 150.076,21.626 150.876,21.626 150.876,27.425 150.076,27.425 150.076,30.526 150.876,30.526 150.876,31.526 164.876,31.526 164.876,30.526 165.676,30.526 165.676,27.425 164.876,27.425 164.876,21.626 165.676,21.626 165.676,18.526 164.876,18.526 164.876,17.526" style="fill:none;stroke-width:0.050000mm;stroke:black"/>
<polygon points="169.926,17.526 169.926,18.526 169.126,18.526 169.126,21.626 169.926,21.626 169.926,27.425 169.126,27.425 169.126,30.526 169.926,30.526 169.926,31.526 183.926,31.526 183.926,30.526 184.726,30.526 184.726,27.425 183.926,27.425 183.926,21.626 184.726,21.626 184.726,18.526 183.926,18.526 183.926,17.526" style="fill:none;stroke-width:0.050000mm;stroke:black"/>
<polygon points="188.976,17.526 188.976,18.526 188.176,18.526 188.176,21.626 188.976,21.626 188.976,27.425 188.176,27.425 188.176,30.526 188.976,30.526 188.976,31.526 202.976,31.526 202.976,30.526 203.776,30.526 203.776,27.425 202.976,27.425 202.976,21.626 203.776,21.626 203.776,18.526 202.976,18.526 202.976,17.526" style="fill:none;stroke-width:0.050000mm;stroke:black"/>
<polygon points="208.026,17.526 208.026,18.526 207.226,18.526 207.226,21.626 208.026,21.626 208.026,27.425 207.226,27.425 207.226,30.526 208.026,30.526 208.026,31.526 222.026,31.526 222.026,30.526 222.826,30.526 222.826,27.425 222.026,27.425 222.026,21.626 222.826,21.626 222.826,18.526 222.026,18.526 222.026,17.526" style="fill:none;stroke-width:0.050000mm;stroke:black"/>
<polygon points="227.076,17.526 227.076,18.526 226.276,18.526 226.276,21.626 227.076,21.626 227.076,27.425 226.276,27.425 226.276,30.526 227.076,30.526 227.076,31.526 241.076,31.526 241.076,30.526 241.876,30.526 241.876,27.425 241.076,27.425 241.076,21.626 241.876,21.626 241.876,18.526 241.076,18.526 241.076,17.526" style="fill:none;stroke-width:0.050000mm;stroke:black"/>
<polygon points="246.126,17.526 246.126,18.526 245.326,18.526 245.326,21.626 246.126,21.626 246.126,27.425 245.326,27.425 245.326,30.526 246.126,30.526 246.126,31.526 260.126,31.526 260.126,30.526 260.926,30.526 260.926,27.425 260.126,27.425 260.126,21.626 260.926,21.626 260.926,18.526 260.126,18.526 260.126,17.526" style="fill:none;stroke-width:0.050000mm;stroke:black"/>
<polygon points="308.038,17.526 308.038,18.526 307.238,18.526 307.238,21.626 308.038,21.626 308.038,27.425 307.238,27.425 307.238,30.526 308.038,30.526 308.038,31.526 322.038,31.526 322.038,30.526 322.838,30.526 322.838,27.425 322.038,27.425 322.038,21.626 322.838,21.626 322.838,18.526 322.038,18.526 322.038,17.526" style="fill:none;stroke-width:0.050000mm;stroke:black"/>
<polygon points="327.088,17.526 327.088,18.526 326.288,18.526 326.288,21.626 327.088,21.626 327.088,27.425 326.288,27.425 326.288,30.526 327.088,30.526 327.088,31.526 341.088,31.526 341.088,30.526 341.888,30.526 341.888,27.425 341.088,27.425 341.088,21.626 341.888,21.626 341.888,18.526 341.088,18.526 341.088,17.526" style="fill:none;stroke-width:0.050000mm;stroke:black"/>
<polygon points="122.075,7.574 121.657,7.787 121.325,8.119 121.112,8.537 121.038,9.001 121.112,9.464 121.325,9.882 121.657,10.214 122.075,10.427 122.538,10.501 123.002,10.427 123.420,10.214 123.752,9.882 123.965,9.464 124.038,9.001 123.965,8.537 123.752,8.119 123.420,7.787 123.002,7.574 122.538,7.501" style="fill:none;stroke-width:0.050000mm;stroke:black"/>
<polygon points="235.613,7.574 235.194,7.787 234.863,8.119 234.650,8.537 234.576,9.001 234.650,9.464 234.863,9.882 235.194,10.214 235.613,10.427 236.076,10.501 236.540,10.427 236.958,10.214 237.290,9.882 237.503,9.464 237.576,9.001 237.503,8.537 237.290,8.119 236.958,7.787 236.540,7.574 236.076,7.501" style="fill:none;stroke-width:0.050000mm;stroke:black"/>
<polygon points="349.150,7.574 348.732,7.787 348.400,8.119 348.187,8.537 348.114,9.001 348.187,9.464 348.400,9.882 348.732,10.214 349.150,10.427 349.614,10.501 350.078,10.427 350.496,10.214 350.828,9.882 351.041,9.464 351.114,9.001 351.041,8.537 350.828,8.119 350.496,7.787 350.078,7.574 349.614,7.501" style="fill:none;stroke-width:0.050000mm;stroke:black"/>
<polygon points="8.537,7.574 8.119,7.787 7.787,8.119 7.574,8.537 7.500,9.001 7.574,9.464 7.787,9.882 8.119,10.214 8.537,10.427 9.001,10.501 9.464,10.427 9.882,10.214 10.214,9.882 10.427,9.464 10.501,9.001 10.427,8.537 10.214,8.119 9.882,7.787 9.464,7.574 9.001,7.501" style="fill:none;stroke-width:0.050000mm;stroke:black"/>
</svg>